<svg width="25" height="25" viewBox="0 0 25 25" fill="none" xmlns="http://www.w3.org/2000/svg">
<path d="M19.9662 24.2467H4.81091C4.04 24.2467 3.53199 24.2467 3.02397 23.9873C2.57634 23.76 2.21753 23.4012 1.99017 22.9535C1.73083 22.4455 1.73083 21.9375 1.73083 21.1666V20.2216C1.73083 19.4507 1.73083 18.9427 1.99017 18.4347C2.21753 17.987 2.57634 17.6282 3.02397 17.4009C3.53199 17.1415 4.04 17.1415 4.81091 17.1415H19.9697C20.7407 17.1415 21.2487 17.1415 21.7567 17.4009C22.2043 17.6282 22.5631 17.987 22.7905 18.4347C23.0463 18.9427 23.0463 19.4507 23.0463 20.2216V21.1701C23.0463 21.9411 23.0463 22.4491 22.7869 22.9571C22.5596 23.4047 22.2008 23.7635 21.7531 23.9909C21.2451 24.2467 20.7371 24.2467 19.9662 24.2467ZM4.11106 21.8665C4.25316 21.8807 4.53381 21.8807 4.80736 21.8807H19.9662C20.2397 21.8807 20.5204 21.8807 20.6625 21.8665C20.6767 21.7243 20.6767 21.4437 20.6767 21.1701V20.2216C20.6767 19.9481 20.6767 19.6674 20.6625 19.5253C20.5204 19.5111 20.2397 19.5111 19.9662 19.5111H4.81091C4.53737 19.5111 4.25671 19.5111 4.11461 19.5253C4.1004 19.6674 4.1004 19.9481 4.1004 20.2216V21.1701C4.1004 21.4437 4.1004 21.7243 4.11106 21.8665ZM18.3107 15.9585H6.46641C5.81274 15.9585 5.28341 15.4292 5.28341 14.7755V7.67037C5.28341 3.75188 8.47007 0.565216 12.3886 0.565216C16.307 0.565216 19.4937 3.75188 19.4937 7.67037V14.7755C19.4937 15.4292 18.9644 15.9585 18.3107 15.9585ZM7.65297 13.589H17.1277V7.67037C17.1277 5.05922 15.0032 2.93478 12.3921 2.93478C9.78096 2.93478 7.65652 5.05922 7.65652 7.67037V13.589H7.65297ZM23.0463 11.2229H21.8633C21.2096 11.2229 20.6803 10.6936 20.6803 10.0399C20.6803 9.38626 21.2096 8.85693 21.8633 8.85693H23.0463C23.6999 8.85693 24.2293 9.38626 24.2293 10.0399C24.2293 10.6901 23.6999 11.2229 23.0463 11.2229ZM2.91384 11.2229H1.73083C1.07716 11.2229 0.547825 10.6936 0.547825 10.0399C0.547825 9.38626 1.07716 8.85693 1.73083 8.85693H2.91384C3.56751 8.85693 4.09685 9.38626 4.09685 10.0399C4.1004 10.6901 3.56751 11.2229 2.91384 11.2229ZM10.0936 9.44665C9.56781 9.44665 9.08466 9.0914 8.94611 8.55851C8.87151 8.27075 8.83598 7.97233 8.83598 7.67037C8.83598 5.7129 10.4311 4.11779 12.3886 4.11779C12.6337 4.11779 12.8788 4.14266 13.1204 4.19239C13.7598 4.32739 14.1719 4.95265 14.0369 5.59566C13.902 6.23513 13.2767 6.64722 12.6337 6.51223C12.5555 6.49446 12.4703 6.48736 12.3886 6.48736C11.7349 6.48736 11.2055 7.02024 11.2055 7.67037C11.2055 7.76984 11.2198 7.87286 11.2411 7.96878C11.4045 8.60114 11.0208 9.24771 10.3885 9.41113C10.289 9.43244 10.1931 9.44665 10.0936 9.44665ZM20.6803 4.11779C20.2468 4.11779 19.8276 3.87622 19.6216 3.46412C19.3303 2.87794 19.5648 2.16743 20.1509 1.87612L22.5205 0.693109C23.1067 0.401798 23.8172 0.636268 24.1085 1.22244C24.3998 1.80862 24.1653 2.51913 23.5792 2.81044L21.2096 3.99345C21.0391 4.07516 20.8579 4.11779 20.6803 4.11779ZM4.09685 4.11779C3.91922 4.11779 3.73804 4.07871 3.56751 3.99345L1.19795 2.81044C0.611771 2.51913 0.377301 1.80506 0.668612 1.22244C0.959923 0.636268 1.67399 0.401798 2.25661 0.693109L4.62618 1.87612C5.21235 2.16743 5.44682 2.88149 5.15551 3.46412C4.94946 3.87622 4.53381 4.11779 4.09685 4.11779Z" fill="white"/>
</svg>
