<svg width="22" height="22" viewBox="0 0 22 22" fill="none" xmlns="http://www.w3.org/2000/svg">
<path fill-rule="evenodd" clip-rule="evenodd" d="M14.6604 6.09619H7.33964C3.62734 6.09619 1.77119 6.09619 0.728553 7.18171C-0.314083 8.26722 -0.0687715 9.94434 0.421862 13.2985L0.887129 16.4792C1.27189 19.1095 1.46427 20.4247 2.45118 21.2123C3.43809 21.9999 4.89368 21.9999 7.80488 21.9999H14.1951C17.1063 21.9999 18.562 21.9999 19.5489 21.2123C20.5358 20.4247 20.7281 19.1095 21.1129 16.4792L21.5782 13.2985C22.0688 9.94434 22.3141 8.26721 21.2715 7.18171C20.2288 6.09619 18.3727 6.09619 14.6604 6.09619ZM13.8393 15.1736C14.4536 14.7928 14.4536 13.8071 13.8393 13.4263L10.1306 11.1272C9.5336 10.7571 8.80001 11.2388 8.80001 12.0008V16.5991C8.80001 17.3611 9.5336 17.8428 10.1306 17.4727L13.8393 15.1736Z" fill="#7680FF"/>
<path opacity="0.4" d="M7.16061 8.02216e-06H14.8388C15.0944 -5.79779e-05 15.2905 -0.000101915 15.4619 0.0166621C16.6805 0.135869 17.678 0.868536 18.1009 1.85546H3.89844C4.3214 0.868536 5.31882 0.135869 6.53743 0.0166621C6.70882 -0.000101915 6.90488 -5.79779e-05 7.16061 8.02216e-06Z" fill="#7680FF"/>
<path opacity="0.7" d="M4.74132 2.99493C3.21163 2.99493 1.95734 3.91866 1.53875 5.1441C1.53003 5.16965 1.52167 5.19533 1.51367 5.22113C1.95164 5.0885 2.40743 5.00185 2.86885 4.94271C4.05726 4.79034 5.55913 4.79042 7.30377 4.79052H14.8851C16.6297 4.79042 18.1316 4.79034 19.32 4.94271C19.7814 5.00185 20.2372 5.0885 20.6752 5.22113C20.6672 5.19533 20.6588 5.16965 20.6501 5.1441C20.2315 3.91866 18.9772 2.99493 17.4475 2.99493H4.74132Z" fill="#7680FF"/>
</svg>
