<svg width="22" height="22" viewBox="0 0 22 22" fill="none" xmlns="http://www.w3.org/2000/svg">
<path d="M15.0577 11.8546C19.1192 13.3542 22 17.0263 22 21.318C22.0004 21.4076 21.9816 21.4965 21.9447 21.5794C21.9078 21.6623 21.8536 21.7376 21.7852 21.801C21.7168 21.8644 21.6354 21.9146 21.546 21.9488C21.4565 21.9829 21.3606 22.0003 21.2638 22H0.730465C0.535978 21.9993 0.349764 21.927 0.212778 21.7991C0.0757923 21.6712 -0.000745773 21.4981 -3.8147e-06 21.318C-7.62939e-06 17.0267 2.88004 13.3545 6.94088 11.8546C8.06384 12.6703 9.47267 13.1629 11 13.1629C12.5276 13.1629 13.9357 12.6706 15.0577 11.8546Z" fill="#7680FF"/>
<path d="M10.9994 0C14.2308 0 16.8618 2.4374 16.8618 5.43097C16.8618 8.42457 14.2308 10.8673 10.9994 10.8673C7.76807 10.8673 5.13135 8.42457 5.13135 5.43097C5.13135 2.4374 7.76807 0 10.9994 0Z" fill="#7680FF"/>
</svg>
