<svg width="22" height="22" viewBox="0 0 22 22" fill="none" xmlns="http://www.w3.org/2000/svg">
<path d="M16.8056 0.0713513V1.78378C16.8056 2.27135 16.39 2.67568 15.8889 2.67568C15.3878 2.67568 14.9722 2.27135 14.9722 1.78378V0H7.02778V1.78378C7.02778 2.27135 6.61222 2.67568 6.11111 2.67568C5.61 2.67568 5.19444 2.27135 5.19444 1.78378V0.0713513C1.58889 0.392432 0 2.65189 0 5.94595V16.0541C0 19.6216 1.83333 22 6.11111 22H15.8889C20.1667 22 22 19.6216 22 16.0541V5.94595C22 2.65189 20.4111 0.392432 16.8056 0.0713513ZM11 15.7568H6.11111C5.61 15.7568 5.19444 15.3524 5.19444 14.8649C5.19444 14.3773 5.61 13.973 6.11111 13.973H11C11.5011 13.973 11.9167 14.3773 11.9167 14.8649C11.9167 15.3524 11.5011 15.7568 11 15.7568ZM15.8889 9.81081H6.11111C5.61 9.81081 5.19444 9.40649 5.19444 8.91892C5.19444 8.43135 5.61 8.02703 6.11111 8.02703H15.8889C16.39 8.02703 16.8056 8.43135 16.8056 8.91892C16.8056 9.40649 16.39 9.81081 15.8889 9.81081Z" fill="#AEB6C2"/>
</svg>
