<svg width="22" height="22" viewBox="0 0 22 22" fill="none" xmlns="http://www.w3.org/2000/svg">
<path fill-rule="evenodd" clip-rule="evenodd" d="M13.1924 0.862711C11.942 -0.28757 10.058 -0.28757 8.80758 0.862711L0.369217 8.62588C-0.0848509 9.04358 -0.125749 9.76322 0.277863 10.2332C0.681474 10.703 1.37675 10.7454 1.83081 10.3277L2.20001 9.98806V16.3825C2.19996 17.3918 2.19991 18.2614 2.29036 18.9578C2.38731 19.704 2.60593 20.4195 3.16656 20.9996C3.72718 21.5799 4.41837 21.8061 5.13944 21.9065C5.81226 22.0001 6.65245 22 7.62759 22H14.3724C15.3475 22 16.1877 22.0001 16.8606 21.9065C17.5816 21.8061 18.2728 21.5799 18.8334 20.9996C19.3941 20.4195 19.6126 19.704 19.7097 18.9578C19.8001 18.2614 19.8001 17.3918 19.8 16.3826V9.98806L20.1691 10.3277C20.6232 10.7454 21.3185 10.703 21.7221 10.2332C22.1257 9.76322 22.0849 9.04358 21.6308 8.62588L13.1924 0.862711ZM11 15.1691C10.3925 15.1691 9.89999 15.6788 9.89999 16.3076V18.5846C9.89999 19.2134 9.40752 19.723 8.79999 19.723C8.19248 19.723 7.69999 19.2134 7.69999 18.5846V16.3076C7.69999 14.4213 9.1774 12.8922 11 12.8922C12.8226 12.8922 14.3 14.4213 14.3 16.3076V18.5846C14.3 19.2134 13.8075 19.723 13.2 19.723C12.5925 19.723 12.1 19.2134 12.1 18.5846V16.3076C12.1 15.6788 11.6075 15.1691 11 15.1691Z" fill="#AEB6C2"/>
</svg>
